<?xml version="1.0" encoding="UTF-8" standalone="no"?>
<!-- Created with Inkscape (http://www.inkscape.org/) -->

<svg
   width="210mm"
   height="297mm"
   viewBox="0 0 210 297"
   version="1.1"
   id="svg1"
   sodipodi:docname="rysunek.svg"
   inkscape:version="1.3 (0e150ed6c4, 2023-07-21)"
   xmlns:inkscape="http://www.inkscape.org/namespaces/inkscape"
   xmlns:sodipodi="http://sodipodi.sourceforge.net/DTD/sodipodi-0.dtd"
   xmlns="http://www.w3.org/2000/svg"
   xmlns:svg="http://www.w3.org/2000/svg">
  <sodipodi:namedview
     id="namedview1"
     pagecolor="#ffffff"
     bordercolor="#000000"
     borderopacity="0.25"
     inkscape:showpageshadow="2"
     inkscape:pageopacity="0.0"
     inkscape:pagecheckerboard="0"
     inkscape:deskcolor="#d1d1d1"
     inkscape:document-units="mm"
     inkscape:zoom="0.74564394"
     inkscape:cx="396.97231"
     inkscape:cy="561.25984"
     inkscape:window-width="1920"
     inkscape:window-height="1051"
     inkscape:window-x="-9"
     inkscape:window-y="-9"
     inkscape:window-maximized="1"
     inkscape:current-layer="layer1" />
  <defs
     id="defs1" />
  <g
     inkscape:label="Warstwa 1"
     inkscape:groupmode="layer"
     id="layer1">
    <path
       style="fill:#803300;stroke-width:0.264999"
       id="path1"
       d="m 104.66416,91.771368 c -0.26636,6.975346 -0.21388,13.961442 -0.23807,20.941182 -0.0353,11.25951 -0.15992,22.51929 0.0119,33.77804 0.056,8.18942 0.8026,16.35139 1.31391,24.51982 0.25527,4.19254 0.38808,8.39144 0.42012,12.59133 0.0231,1.66965 -0.0399,3.33897 -0.0311,5.00844 0.0312,2.21537 0.0398,4.4307 0.0209,6.6462 -0.0158,1.44857 -0.0314,2.89718 -0.0347,4.34585 -0.014,1.09498 0.027,2.1906 -0.0365,3.2842 -0.1668,1.6858 -0.37159,3.36716 -0.50898,5.05595 -0.0569,1.49057 -0.22927,2.96704 -0.45516,4.44013 -0.27016,1.934 -0.31856,3.89192 -0.36157,5.84182 0.004,1.66972 -0.31472,3.29485 -0.74946,4.89659 -0.15977,0.44985 -0.17187,0.91892 -0.18333,1.38931 0,0 3.50545,1.78836 3.50545,1.78836 v 0 c -0.007,-0.44342 -0.0215,-0.88286 0.12433,-1.31048 0.40326,-1.64488 0.69759,-3.30927 0.72714,-5.00941 0.0441,-1.9296 0.0824,-3.86625 0.37399,-5.77804 0.23281,-1.48417 0.43641,-2.96908 0.45307,-4.47496 0.12244,-1.68607 0.32121,-3.36149 0.55022,-5.03561 0.0994,-1.10015 0.0323,-2.20712 0.0483,-3.31089 -0.003,-1.46014 -0.0188,-2.92023 -0.0333,-4.3803 -0.0166,-2.20554 -0.007,-4.41095 0.0357,-6.61618 0.0196,-1.68884 -0.0368,-3.37756 -0.0649,-5.06604 -0.11394,-4.25071 -0.34469,-8.49632 -0.66621,-12.73656 -0.62194,-8.20079 -1.4035,-16.39791 -1.5609,-24.62535 -0.25466,-11.26251 -0.18444,-22.52723 -0.0589,-33.79133 0.12062,-6.85663 0.11441,-13.74863 0.88793,-20.569786 z" />
    <path
       style="fill:#803300;stroke-width:0.264999"
       id="path2"
       d="m 106.19524,217.30987 c 3.22945,6.25037 5.69246,12.8641 8.39607,19.35149 2.36991,5.60112 4.82056,11.17389 7.53169,16.61985 0.72876,1.46389 2.18602,4.23932 2.97047,5.74172 1.82646,3.6988 3.81479,7.31266 5.74511,10.95711 0.47037,0.97456 0.95617,1.93897 1.48745,2.88147 0,0 3.54153,1.57168 3.54153,1.57168 v 0 c -0.58603,-0.93983 -1.11342,-1.90966 -1.59084,-2.91018 -2.00734,-3.66784 -4.02997,-7.3276 -5.94589,-11.04465 -3.93673,-7.31918 -7.67511,-14.74749 -10.79494,-22.45887 -2.58882,-6.35576 -4.99195,-12.78628 -7.73453,-19.0781 z" />
    <path
       style="fill:#803300;stroke-width:0.264999"
       id="path3"
       d="m 104.00476,219.04772 c -3.0072,3.24934 -5.546667,6.87877 -8.284652,10.34724 -0.845238,1.07074 -1.714283,2.12248 -2.571425,3.18371 -5.271407,6.34691 -11.413974,11.88109 -17.458745,17.46895 -4.459748,4.18872 -9.081826,8.22608 -13.258273,12.70418 -1.21846,1.32421 -0.662541,0.69575 -1.677062,1.87712 0,0 3.296441,1.97511 3.296441,1.97511 v 0 c 0.940176,-1.20811 0.422212,-0.56369 1.564487,-1.92466 3.980465,-4.60961 8.532881,-8.68305 12.971179,-12.84047 6.069928,-5.58574 12.149127,-11.19791 17.476115,-17.51586 3.657029,-4.49116 7.109155,-9.18961 11.277055,-13.23155 z" />
    <path
       style="fill:#803300;stroke-width:0.264999"
       id="path4"
       d="m 103.70274,134.86295 c -3.46096,0.47807 -6.979816,0.37697 -10.461442,0.27812 -5.00503,-0.14211 -5.085337,-0.19838 -10.184558,-0.54098 -8.40798,-0.58315 -16.708062,-2.02104 -25.005655,-3.42762 -2.663764,-0.47435 -5.333237,-0.91513 -8.003677,-1.34987 0,0 2.936743,2.20381 2.936743,2.20381 v 0 c 2.625042,0.3901 5.24787,0.79468 7.862744,1.24899 8.236178,1.35873 16.462423,2.67529 24.803129,3.23617 5.567241,0.39197 4.83956,0.38188 10.300065,0.60847 3.65162,0.15152 7.336251,0.36117 10.982141,-0.007 z" />
    <path
       style="fill:#803300;stroke-width:0.264999"
       id="path5"
       d="m 109.24753,137.95229 c 4.33372,-1.10076 8.85002,-1.23081 13.29498,-1.4467 6.12936,-0.37149 12.25536,-0.14016 18.37673,0.21571 2.28653,0.1564 4.56833,0.37157 6.8493,0.59264 0.63337,0.0614 2.05963,0.22799 2.74651,0.20671 0.37376,-0.0116 0.7426,-0.0887 1.11391,-0.13305 2.13144,-0.57575 4.10435,-1.60254 6.13951,-2.44063 0.23814,-0.0876 0.47629,-0.17517 0.71443,-0.26275 0,0 -3.22751,-2.16773 -3.22751,-2.16773 v 0 c -0.23473,0.0952 -0.46946,0.19034 -0.70418,0.28552 -1.97943,0.87266 -3.92931,1.88152 -6.05144,2.36226 -0.3546,0.0327 -0.70777,0.0907 -1.06379,0.098 -0.60759,0.0125 -2.1141,-0.12111 -2.66151,-0.16364 -2.24569,-0.17447 -4.49123,-0.35174 -6.73901,-0.49775 -1.55297,-0.0868 -4.19744,-0.24325 -5.74581,-0.29501 -4.20393,-0.14054 -8.40986,-0.017 -12.61138,0.13914 -4.56725,0.20671 -9.18182,0.33568 -13.66944,1.28348 z" />
    <path
       style="fill:#803300;stroke-width:0.264999"
       id="path6"
       d="m 111.61509,49.867256 c -0.11341,-0.103108 -0.23138,-0.201422 -0.34024,-0.309319 -0.48372,-0.479428 -0.88663,-1.089261 -1.47926,-1.449533 -4.3409,-2.638894 -3.26239,-2.115942 -6.56729,-3.340587 -6.096161,-1.685113 -12.422952,-2.523736 -18.729663,-2.885112 -2.058631,-0.0042 -4.04236,0.184391 -5.793833,1.376058 -2.0198,1.374233 -2.939846,3.104891 -4.091694,5.161386 -0.302609,0.755571 -0.683638,1.484281 -0.907827,2.266712 -1.185786,4.138448 -0.785818,8.861412 0.05189,13.024083 0.217408,1.080322 0.530352,2.139201 0.795528,3.208803 1.506331,5.355277 4.301495,10.029126 7.523888,14.501349 1.85938,2.510922 3.997576,4.814784 6.375161,6.84376 1.50327,1.282856 2.392045,1.879566 3.987081,3.036192 3.040681,1.924817 6.1064,3.904059 9.590989,4.911235 1.59397,0.460719 3.62931,0.843674 5.26834,1.036436 0.91612,0.107741 1.83941,0.141751 2.75911,0.212628 3.6675,0.03699 7.13464,-0.943862 10.23019,-2.916153 2.00732,-1.278943 2.37489,-1.803191 4.07738,-3.453016 3.15584,-3.674184 4.94581,-8.189656 5.94226,-12.88623 0.19338,-0.91145 0.32373,-1.835139 0.48559,-2.752706 0.44213,-3.891188 1.04288,-7.911642 0.30795,-11.811331 -0.12784,-0.678347 -0.33543,-1.339207 -0.50315,-2.008809 -1.1526,-3.345627 -2.97083,-6.436455 -5.36065,-9.050441 -0.43944,-0.480652 -0.91841,-0.923612 -1.37761,-1.385419 -2.45873,-2.206141 -5.20669,-3.703669 -8.23528,-5.118777 -0.79685,-0.37233 -1.66598,-0.567322 -2.51252,-0.806019 -1.94567,-0.548621 -3.47754,-0.830133 -5.44808,-1.237694 -2.47165,-0.391962 -5.07654,-1.088702 -7.59454,-0.583885 -0.441263,0.08847 -0.857562,0.273407 -1.28634,0.410112 0,0 3.14479,2.144818 3.14479,2.144818 v 0 c 0.40777,-0.119864 0.80527,-0.282919 1.22333,-0.359598 2.45216,-0.449773 4.97235,0.191215 7.38092,0.56351 2.07168,0.432165 3.38436,0.660836 5.42966,1.276728 0.8529,0.256834 1.63503,0.845153 2.52531,0.87381 0.45522,0.01466 -1.49738,-1.025694 -1.08729,-0.827521 0.83065,0.401405 2.32769,1.678792 3.02969,2.245873 0.46683,0.453893 0.95345,0.888281 1.40049,1.361676 2.41062,2.552721 4.25197,5.595138 5.43258,8.897731 0.47036,1.781455 0.64323,2.138547 0.81565,3.979809 0.30441,3.25061 -0.0789,6.526194 -0.45482,9.751184 -0.15503,0.911948 -0.27838,1.829851 -0.46509,2.735845 -0.9568,4.642879 -2.7221,9.089697 -5.86431,12.697206 -1.65169,1.580938 -2.07879,2.151372 -4.02302,3.372157 -3.05988,1.921311 -6.49975,2.818767 -10.10294,2.751404 -0.9136,-0.07862 -1.83134,-0.118774 -2.74081,-0.235873 -1.6528,-0.212802 -3.66413,-0.621665 -5.264611,-1.114705 -0.784992,-0.241824 -1.49383,-0.798635 -2.313752,-0.847802 -0.430594,-0.02582 1.428644,0.956606 1.039077,0.771363 -0.729814,-0.347032 -1.380136,-0.841113 -2.070203,-1.26167 -1.550046,-1.108025 -2.536518,-1.767258 -3.997672,-2.996282 -2.382597,-2.004079 -4.514228,-4.295468 -6.396786,-6.771937 -3.252227,-4.422423 -6.13881,-9.120285 -7.700653,-14.432126 -0.276188,-1.063262 -0.603144,-2.114616 -0.828569,-3.189787 -0.868736,-4.143455 -1.234681,-8.669822 -0.0071,-12.782786 0.22804,-0.764019 0.596927,-1.478711 0.89539,-2.218068 1.127419,-1.97109 2.047155,-3.66517 4.026064,-4.942509 1.698869,-1.096579 3.648181,-1.255379 5.611503,-1.275167 6.310918,0.301939 12.655802,1.128159 18.702172,3.010656 0.87391,0.357571 4.68227,2.047629 0.0856,-0.377288 -0.25367,-0.133826 0.46023,0.343572 0.67458,0.534136 0.7031,0.625046 0.13725,0.216257 0.7482,0.88111 0.0972,0.105783 0.22037,0.184388 0.33055,0.276582 z" />
    <circle
       id="path7"
       style="fill:#803300;stroke:#000000;stroke-width:0.264583"
       cx="94.387093"
       cy="59.612904"
       r="0.047338597" />
  </g>
</svg>
